<svg width="31" height="31" viewBox="0 0 31 31" fill="none" xmlns="http://www.w3.org/2000/svg">
<path d="M15.2998 22.0972C15.0498 22.0972 14.8154 22.0578 14.5967 21.979C14.3779 21.9015 14.1748 21.769 13.9873 21.5815L7.2373 14.8315C6.89355 14.4878 6.72168 14.0503 6.72168 13.519C6.72168 12.9878 6.89355 12.5503 7.2373 12.2065C7.58105 11.8628 8.02605 11.6828 8.5723 11.6665C9.1198 11.6515 9.56543 11.8159 9.90918 12.1597L13.4248 15.6753V2.26904C13.4248 1.73779 13.6048 1.29217 13.9648 0.932168C14.3236 0.573418 14.7686 0.394043 15.2998 0.394043C15.8311 0.394043 16.2767 0.573418 16.6367 0.932168C16.9954 1.29217 17.1748 1.73779 17.1748 2.26904V15.6753L20.6904 12.1597C21.0342 11.8159 21.4798 11.6515 22.0273 11.6665C22.5736 11.6828 23.0186 11.8628 23.3623 12.2065C23.7061 12.5503 23.8779 12.9878 23.8779 13.519C23.8779 14.0503 23.7061 14.4878 23.3623 14.8315L16.6123 21.5815C16.4248 21.769 16.2217 21.9015 16.0029 21.979C15.7842 22.0578 15.5498 22.0972 15.2998 22.0972ZM4.0498 30.394C3.01855 30.394 2.13605 30.0272 1.4023 29.2934C0.667304 28.5584 0.299805 27.6753 0.299805 26.644V22.894C0.299805 22.3628 0.47918 21.9172 0.83793 21.5572C1.19793 21.1984 1.64355 21.019 2.1748 21.019C2.70605 21.019 3.15168 21.1984 3.51168 21.5572C3.87043 21.9172 4.0498 22.3628 4.0498 22.894V26.644H26.5498V22.894C26.5498 22.3628 26.7298 21.9172 27.0898 21.5572C27.4486 21.1984 27.8936 21.019 28.4248 21.019C28.9561 21.019 29.4011 21.1984 29.7598 21.5572C30.1198 21.9172 30.2998 22.3628 30.2998 22.894V26.644C30.2998 27.6753 29.9329 28.5584 29.1992 29.2934C28.4642 30.0272 27.5811 30.394 26.5498 30.394H4.0498Z" fill="url(#paint0_linear_204_33)"/>
<defs>
<linearGradient id="paint0_linear_204_33" x1="0.299805" y1="15.394" x2="30.2998" y2="15.394" gradientUnits="userSpaceOnUse">
<stop stop-color="#591C93"/>
<stop offset="0.495192" stop-color="#943A78"/>
<stop offset="1" stop-color="#E36235"/>
</linearGradient>
</defs>
</svg>
